<?xml version="1.0" encoding="UTF-8"?>
<svg width="24px" height="18px" viewBox="0 0 24 18" version="1.1" xmlns="http://www.w3.org/2000/svg" xmlns:xlink="http://www.w3.org/1999/xlink">
    <!-- Generator: Sketch 47.1 (45422) - http://www.bohemiancoding.com/sketch -->
    <title>Combined Shape</title>
    <desc>Created with Sketch.</desc>
    <defs>
        <path d="M23.4146793,3.06226804 L16.5812982,3.06226804 C14.314893,3.06226804 12.7414565,4.11536433 11.9989133,5 C11.25637,4.11536433 9.68293354,3.06226804 7.41652828,3.06226804 L0.583147184,3.06226804 C0.269217722,3.06226804 0.014777609,3.31670816 0.014777609,3.63063762 L0.014777609,12 C0.014777609,12.3139295 0.686070538,12 1,12 C1.31392946,12 2,12.3139295 2,12 L2,5 L7.41652828,5 C9.61491865,5 10.643506,5.99932956 11,6.5 L11,17.0515484 C10,16 7.93622288,16 6,16 C4.00525726,16 2.91551708,15.9929901 2,16 L2,12.031134 C2,11.7172046 1.31392946,12.031134 1,12.031134 C0.686070538,12.031134 8.62168595e-16,11.6860705 8.77770079e-16,12 L0.014777609,16.4933463 L0.014777609,20 C0.014777609,20.5 0.583147184,21 1,21 L11.9989133,21 C11.9989975,21 15.6660264,21 23,21 C23.9830489,21 23.9830489,20 23.9830489,20 L23.9830489,3.63063762 C23.9830489,3.31677131 23.7285456,3.06226804 23.4146793,3.06226804 Z M16.5812982,5 L22,5 L22,16 C21,15.9136725 21.0004688,16 16.5812982,16 C15,16 14,16 13.0136424,17.0515484 L13.0136424,6.5 C13.3683682,5.9978139 14.3709089,5 16.5812982,5 Z M2,18 C2.97771542,17.9489417 4.32265505,17.9489417 6.03481889,18 C8.47104177,18.0726505 10,18 11,19 L2,19 L2,18 Z M16.5812982,18 C19.1192764,18 20.9255103,18 22,18 L22,19 L13.0136424,19 C14,18 15,18 16.5812982,18 Z M15.5,8 C15.1860705,8 15,7.81392946 15,7.5 C15,7.18607054 15.1860705,7.07867807 15.5,7.07867807 L20.5,7.07867807 C20.8139295,7.07867807 21,7.18607054 21,7.5 C21,7.81392946 20.8139295,8 20.5,8 L15.5,8 Z M15.5,11 C15.1860705,11 15,10.8139295 15,10.5 C15,10.4214706 15.2645999,10 15.5,10 L20.3596297,10 C20.6735592,10 21,10.1860705 21,10.5 C21,10.8139295 20.6735592,11 20.3596297,11 L15.5,11 Z M15.5,14 C15.1860705,14 15,13.8730363 15,13.5591068 C15,13.2451774 15.1860705,12.9907372 15.5,12.9907372 L20.5,12.9907372 C20.8139295,12.9907372 21,13.1814392 21,13.4953686 C21,13.8092981 20.8139295,14 20.5,14 L15.5,14 Z M3.63800735,8 C3.32414104,8 3,7.81392946 3,7.5 C3,7.18607054 3.32407788,7 3.63800735,7 L8.5,7 C8.81392946,7 9,7.18607054 9,7.5 C9,7.81392946 8.81392946,8 8.5,8 L3.63800735,8 Z M3.63800735,11 C3.32414104,11 3,10.8139295 3,10.5 C3,10.1860705 3.32407788,10 3.63800735,10 L8.5,10 C8.81392946,10 9,10.1860705 9,10.5 C9,10.8139295 8.81392946,11 8.5,11 L3.63800735,11 Z M3.63800735,14 C3.32414104,14 3.06963777,13.8730363 3.06963777,13.5591068 C3.06963777,13.2451774 3.32407788,12.9907372 3.63800735,12.9907372 L8.5,13 C8.81392946,13 9,13.1814392 9,13.4953686 C9,13.8092981 8.81392946,14 8.5,14 L3.63800735,14 Z" id="book-path-1"></path>
    </defs>
    <g id="Symbols" stroke="none" stroke-width="1" fill="none" fill-rule="evenodd">
        <g id="Icons/Brochure" transform="translate(0.000000, -3.000000)">
            <mask id="mask-2" fill="white">
                <use xlink:href="#book-path-1"></use>
            </mask>
            <use id="Combined-Shape" fill="#222222" fill-rule="nonzero" xlink:href="#book-path-1"></use>
        </g>
    </g>
</svg>